# xmcd CD database file
#
# Track frame offsets:
#	150
#	7790
#	30430
#	47817
#	61437
#	75478
#	97881
#	109659
#	125362
#	146490
#	158243
#	174984
#	191400
#	206928
#	219582
#
# Disc length: 3225 seconds
#
# Revision: 0
# Processed by: cddbd v1.5.1PL0 Copyright (c) Steve Scherf et al.
# Submitted via: CDex 1.50beta10
#
DISCID=bf0c970f
DTITLE=Tito Gomez - Tito Gomez En Vivo
DYEAR=1900
DGENRE=Salsa
TTITLE0=Presentacion
TTITLE1=Despierta Emilia
TTITLE2=Y soy loco
TTITLE3=Arrimate cariñito
TTITLE4=Mienteme
TTITLE5=Que se me caigan los clientes
TTITLE6=Amor para que
TTITLE7=El tiempo serà testigo
TTITLE8=Canuto viejo bruto
TTITLE9=Como fue
TTITLE10=A La United Café
TTITLE11=Viaje sin comodidad
TTITLE12=De mi para ti
TTITLE13=Franqueza
TTITLE14=Penita contigo
EXTD=
EXTT0=
EXTT1=
EXTT2=
EXTT3=
EXTT4=
EXTT5=
EXTT6=
EXTT7=
EXTT8=
EXTT9=
EXTT10=
EXTT11=
EXTT12=
EXTT13=
EXTT14=
PLAYORDER=
